<?xml version="1.0" encoding="UTF-8"?>
<svg id="Capa_2" data-name="Capa 2" xmlns="http://www.w3.org/2000/svg" xmlns:xlink="http://www.w3.org/1999/xlink" viewBox="0 0 1045.45 500">
  <defs>
    <style>
      .cls-1 {
        fill: #fff;
      }

      .cls-2 {
        fill: url(#Degradado_sin_nombre_67-8);
      }

      .cls-3 {
        fill: url(#Degradado_sin_nombre_67-11);
      }

      .cls-4 {
        fill: url(#Degradado_sin_nombre_67-9);
      }

      .cls-5 {
        fill: url(#Degradado_sin_nombre_67-6);
      }

      .cls-6 {
        fill: url(#Degradado_sin_nombre_67-7);
      }

      .cls-7 {
        fill: url(#Degradado_sin_nombre_9-2);
      }

      .cls-8 {
        fill: url(#Degradado_sin_nombre_67-12);
      }

      .cls-9 {
        fill: #438ecc;
      }

      .cls-10 {
        fill: url(#Degradado_sin_nombre_67-2);
      }

      .cls-11 {
        fill: url(#Degradado_sin_nombre_67-5);
      }

      .cls-12 {
        fill: url(#Degradado_sin_nombre_67-10);
      }

      .cls-13 {
        fill: url(#Degradado_sin_nombre_9);
      }

      .cls-14 {
        fill: url(#Degradado_sin_nombre_67-3);
      }

      .cls-15 {
        fill: url(#Degradado_sin_nombre_67-4);
      }

      .cls-16 {
        fill: url(#Degradado_sin_nombre_67);
      }
    </style>
    <linearGradient id="Degradado_sin_nombre_9" data-name="Degradado sin nombre 9" x1="525" y1="275" x2="225" y2="-25" gradientUnits="userSpaceOnUse">
      <stop offset=".5" stop-color="#2377bc"/>
      <stop offset="1" stop-color="#2377bc" stop-opacity=".2"/>
    </linearGradient>
    <linearGradient id="Degradado_sin_nombre_9-2" data-name="Degradado sin nombre 9" x1="5761.17" y1="669.26" x2="5461.17" y2="369.26" gradientTransform="translate(5736.17 894.26) rotate(-180)" xlink:href="#Degradado_sin_nombre_9"/>
    <linearGradient id="Degradado_sin_nombre_67" data-name="Degradado sin nombre 67" x1="400.29" y1="469.22" x2="444.95" y2="469.22" gradientUnits="userSpaceOnUse">
      <stop offset="0" stop-color="#fff" stop-opacity=".5"/>
      <stop offset="1" stop-color="#fff" stop-opacity=".5"/>
    </linearGradient>
    <linearGradient id="Degradado_sin_nombre_67-2" data-name="Degradado sin nombre 67" x1="459.24" y1="468.59" x2="497.51" y2="468.59" xlink:href="#Degradado_sin_nombre_67"/>
    <linearGradient id="Degradado_sin_nombre_67-3" data-name="Degradado sin nombre 67" x1="491.24" y1="468.59" x2="541.87" y2="468.59" xlink:href="#Degradado_sin_nombre_67"/>
    <linearGradient id="Degradado_sin_nombre_67-4" data-name="Degradado sin nombre 67" x1="549.02" y1="468.59" x2="557.09" y2="468.59" xlink:href="#Degradado_sin_nombre_67"/>
    <linearGradient id="Degradado_sin_nombre_67-5" data-name="Degradado sin nombre 67" x1="571.39" y1="468.59" x2="628.91" y2="468.59" xlink:href="#Degradado_sin_nombre_67"/>
    <linearGradient id="Degradado_sin_nombre_67-6" data-name="Degradado sin nombre 67" x1="638.67" y1="468.59" x2="692.73" y2="468.59" xlink:href="#Degradado_sin_nombre_67"/>
    <linearGradient id="Degradado_sin_nombre_67-7" data-name="Degradado sin nombre 67" x1="687.02" y1="468.59" x2="737.65" y2="468.59" xlink:href="#Degradado_sin_nombre_67"/>
    <linearGradient id="Degradado_sin_nombre_67-8" data-name="Degradado sin nombre 67" x1="744.8" y1="468.59" x2="787.27" y2="468.59" xlink:href="#Degradado_sin_nombre_67"/>
    <linearGradient id="Degradado_sin_nombre_67-9" data-name="Degradado sin nombre 67" x1="821.24" y1="468.59" x2="871.87" y2="468.59" xlink:href="#Degradado_sin_nombre_67"/>
    <linearGradient id="Degradado_sin_nombre_67-10" data-name="Degradado sin nombre 67" x1="875.74" y1="468.59" x2="932.09" y2="468.59" xlink:href="#Degradado_sin_nombre_67"/>
    <linearGradient id="Degradado_sin_nombre_67-11" data-name="Degradado sin nombre 67" x1="939.82" y1="468.59" x2="996.17" y2="468.59" xlink:href="#Degradado_sin_nombre_67"/>
    <linearGradient id="Degradado_sin_nombre_67-12" data-name="Degradado sin nombre 67" x1="1007.19" y1="468.59" x2="1045.45" y2="468.59" xlink:href="#Degradado_sin_nombre_67"/>
  </defs>
  <g id="Capa_1-2" data-name="Capa 1">
    <g>
      <g>
        <path class="cls-1" d="m440.74,414.19v-25.99h-14.6v25.99h-25.85v-74.42h25.85v27.44h14.6v-27.44h25.85v74.42h-25.85Z"/>
        <path class="cls-1" d="m542.81,376.98c0,13.55-2.82,23.38-8.47,29.49-5.65,6.11-14.65,9.16-27.02,9.16s-21.39-3.07-27.08-9.22c-5.68-6.15-8.52-15.98-8.52-29.49s2.82-23.33,8.47-29.43c5.64-6.11,14.67-9.16,27.08-9.16s21.43,3.05,27.08,9.16c5.64,6.11,8.47,15.94,8.47,29.49Zm-45.02,0c0,6.29.61,10.83,1.84,13.61,1.23,2.78,3.79,4.17,7.69,4.17s6.44-1.37,7.63-4.11c1.19-2.74,1.78-7.31,1.78-13.72s-.58-10.96-1.73-13.66c-1.15-2.7-3.7-4.05-7.63-4.05s-6.52,1.39-7.74,4.17c-1.23,2.78-1.84,7.31-1.84,13.61Z"/>
        <path class="cls-1" d="m604.76,361.21c-10.47-1.11-18.09-1.67-22.84-1.67s-7.52.13-8.3.39c-.78.26-1.17.8-1.17,1.61s.45,1.44,1.34,1.89c.89.44,3.69,1.19,8.41,2.22,4.72,1.04,8.58,2.05,11.59,3.05,3.01,1,5.72,2.41,8.13,4.22,2.41,1.82,4.01,4.04,4.79,6.66.78,2.63,1.17,6.17,1.17,10.61,0,9.18-2.45,15.74-7.35,19.66-4.9,3.93-12.3,5.89-22.17,5.89-4.75,0-9.75-.33-14.99-1-5.24-.67-9.27-1.33-12.09-2l-4.35-1,1.11-19.66c11.37,1.63,20.69,2.44,27.97,2.44,3.86,0,5.79-.85,5.79-2.56,0-.74-.45-1.28-1.34-1.61-.89-.33-3.31-.79-7.24-1.39-10.4-1.63-17.48-4.17-21.23-7.61-3.75-3.44-5.63-9.09-5.63-16.94,0-10,2.41-16.85,7.24-20.55,4.83-3.7,12.26-5.55,22.29-5.55,7.06,0,15.34.7,24.85,2.11l4.68.78-.67,19.99Z"/>
        <path class="cls-1" d="m641.64,398.42h-3.45v15.77h-25.85v-74.42h29.31c11.81,0,20.41,2.04,25.8,6.11,5.38,4.07,8.08,11.72,8.08,22.94s-2.71,18.96-8.13,23.21c-5.42,4.26-14,6.39-25.74,6.39Zm-3.45-20.33h2.34c3.19,0,5.48-.7,6.85-2.11,1.37-1.41,2.06-3.81,2.06-7.22s-.65-5.7-1.95-6.89c-1.3-1.18-3.62-1.78-6.96-1.78h-2.34v17.99Z"/>
        <path class="cls-1" d="m680.53,414.19v-74.42h25.85v74.42h-25.85Z"/>
        <path class="cls-1" d="m710.73,360.76v-20.99h55.71v20.99h-14.49v53.43h-25.85v-53.43h-15.38Z"/>
        <path class="cls-1" d="m760.76,414.19l16.49-74.42h39.11l16.83,74.42h-26.08l-2.12-8.55h-17.05l-1.78,8.55h-25.41Zm34.77-54.2l-4.23,25.99h11.03l-4.01-25.99h-2.79Z"/>
        <path class="cls-1" d="m886,414.19h-50.14v-74.42h25.85v53.43h24.29v20.99Z"/>
        <path class="cls-1" d="m890.35,414.19v-74.42h25.85v74.42h-25.85Z"/>
        <path class="cls-1" d="m920.54,360.76v-20.99h55.71v20.99h-14.49v53.43h-25.85v-53.43h-15.38Z"/>
        <path class="cls-1" d="m1023.61,414.19h-25.85v-23.33l-21.28-51.09h27.41l7.02,21.88,7.24-21.88h27.3l-21.84,51.09v23.33Z"/>
      </g>
      <g>
        <polygon class="cls-13" points="300 100 400 100 400 300 500 300 500 0 200 0 200 200 300 200 300 100"/>
        <rect class="cls-9" x="200" width="100" height="200"/>
        <polygon class="cls-7" points="200 400 100 400 100 200 0 200 0 500 300 500 300 300 200 300 200 400"/>
        <rect class="cls-9" x="200" y="300" width="100" height="200" transform="translate(500 800) rotate(180)"/>
      </g>
      <g>
        <path class="cls-16" d="m400.29,475.74v-34.99c0-1.54.7-2.31,2.1-2.31h3.87c1.4,0,2.1.77,2.1,2.31v33.72c0,7.85,1.11,12.97,3.34,15.37,2.23,2.4,5.87,3.6,10.91,3.6s8.68-1.2,10.91-3.6c2.23-2.4,3.34-7.52,3.34-15.37v-33.72c0-1.54.7-2.31,2.1-2.31h3.87c1.4,0,2.1.77,2.1,2.31v34.99c0,8.89-2.04,15.15-6.12,18.8-4.08,3.64-9.48,5.47-16.21,5.47s-12.13-1.82-16.21-5.47c-4.08-3.64-6.12-9.91-6.12-18.8Z"/>
        <path class="cls-10" d="m461.34,498.74c-1.4,0-2.1-.77-2.1-2.31v-55.67c0-1.54.7-2.31,2.1-2.31h3.87c1.4,0,2.1.77,2.1,2.31v51.09h27.88c1.54,0,2.31.63,2.31,1.89v3.11c0,1.26-.77,1.89-2.31,1.89h-33.85Z"/>
        <path class="cls-14" d="m493.64,445.67c-1.6,0-2.4-.63-2.4-1.89v-3.45c0-1.26.79-1.89,2.38-1.89h45.86c1.59,0,2.38.63,2.38,1.89v3.45c0,1.26-.8,1.89-2.4,1.89h-18.88v50.75c0,1.54-.7,2.31-2.1,2.31h-3.87c-1.4,0-2.1-.77-2.1-2.31v-50.75h-18.88Z"/>
        <path class="cls-15" d="m551.12,498.74c-1.4,0-2.1-.77-2.1-2.31v-55.67c0-1.54.7-2.31,2.1-2.31h3.87c1.4,0,2.1.77,2.1,2.31v55.67c0,1.54-.7,2.31-2.1,2.31h-3.87Z"/>
        <path class="cls-11" d="m573.49,498.74c-1.4,0-2.1-.77-2.1-2.31v-55.67c0-1.54.7-2.31,2.1-2.31h8.96c1.07,0,1.86.84,2.4,2.52l12.03,37.72c1.23,3.87,1.96,6.2,2.19,7,.22.8.55,2.26.97,4.39h.25c.42-2.13.74-3.6.97-4.39.22-.8.95-3.13,2.19-7l12.03-37.72c.53-1.68,1.33-2.52,2.4-2.52h8.96c1.4,0,2.1.77,2.1,2.31v55.67c0,1.54-.7,2.31-2.1,2.31h-3.87c-1.4,0-2.1-.77-2.1-2.31v-44.11c0-1.12.03-2.24.08-3.36h-.17l-15.52,47.22c-.56,1.71-1.49,2.57-2.78,2.57h-4.63c-1.29,0-2.21-.86-2.78-2.57l-15.52-47.22h-.17c.06,1.12.08,2.24.08,3.36v44.11c0,1.54-.7,2.31-2.1,2.31h-3.87Z"/>
        <path class="cls-5" d="m639.93,498.74c-1.29,0-1.58-.93-.88-2.78l20.94-54.96c.64-1.71,1.57-2.57,2.78-2.57h5.89c1.2,0,2.13.86,2.78,2.57l20.94,54.96c.7,1.85.41,2.78-.88,2.78h-3.79c-1.31,0-2.24-.69-2.77-2.06l-5.28-13.92h-27.86l-5.28,13.92c-.54,1.37-1.46,2.06-2.77,2.06h-3.79Zm14.47-22.87h22.61l-6.4-16.82c-.75-1.57-1.48-3.31-2.21-5.21-.73-1.91-1.59-4.61-2.58-8.12h-.21c-.99,3.5-1.86,6.21-2.58,8.12-.73,1.91-1.47,3.64-2.21,5.21l-6.4,16.82Z"/>
        <path class="cls-6" d="m689.42,445.67c-1.6,0-2.4-.63-2.4-1.89v-3.45c0-1.26.79-1.89,2.38-1.89h45.86c1.59,0,2.38.63,2.38,1.89v3.45c0,1.26-.8,1.89-2.4,1.89h-18.88v50.75c0,1.54-.7,2.31-2.1,2.31h-3.87c-1.4,0-2.1-.77-2.1-2.31v-50.75h-18.88Z"/>
        <path class="cls-2" d="m746.9,498.74c-1.4,0-2.1-.77-2.1-2.31v-55.67c0-1.54.7-2.31,2.1-2.31h36.79c1.54,0,2.31.63,2.31,1.89v3.11c0,1.26-.77,1.89-2.31,1.89h-30.82v18.67h28.3c1.54,0,2.31.63,2.31,1.89v3.11c0,1.26-.77,1.89-2.31,1.89h-28.3v20.94h32.08c1.54,0,2.31.63,2.31,1.89v3.11c0,1.26-.77,1.89-2.31,1.89h-38.05Z"/>
        <path class="cls-4" d="m823.64,445.67c-1.6,0-2.4-.63-2.4-1.89v-3.45c0-1.26.79-1.89,2.38-1.89h45.86c1.59,0,2.38.63,2.38,1.89v3.45c0,1.26-.8,1.89-2.4,1.89h-18.88v50.75c0,1.54-.7,2.31-2.1,2.31h-3.87c-1.4,0-2.1-.77-2.1-2.31v-50.75h-18.88Z"/>
        <path class="cls-12" d="m875.74,468.59c0-9.81,2.42-17.5,7.25-23.06,4.84-5.56,11.81-8.35,20.92-8.35s16.08,2.78,20.92,8.35c4.84,5.56,7.25,13.25,7.25,23.06s-2.42,17.5-7.25,23.06c-4.84,5.56-11.81,8.35-20.92,8.35s-16.08-2.78-20.92-8.35c-4.84-5.56-7.25-13.25-7.25-23.06Zm8.62,0c0,7.85,1.61,13.95,4.84,18.31,3.22,4.36,8.13,6.54,14.72,6.54s11.49-2.18,14.72-6.54c3.22-4.36,4.84-10.46,4.84-18.31s-1.61-13.95-4.84-18.31c-3.22-4.36-8.13-6.54-14.72-6.54s-11.49,2.18-14.72,6.54c-3.22,4.36-4.84,10.46-4.84,18.31Z"/>
        <path class="cls-3" d="m939.82,468.59c0-9.81,2.42-17.5,7.25-23.06,4.84-5.56,11.81-8.35,20.92-8.35s16.08,2.78,20.92,8.35c4.84,5.56,7.25,13.25,7.25,23.06s-2.42,17.5-7.25,23.06c-4.84,5.56-11.81,8.35-20.92,8.35s-16.08-2.78-20.92-8.35c-4.84-5.56-7.25-13.25-7.25-23.06Zm8.62,0c0,7.85,1.61,13.95,4.84,18.31,3.22,4.36,8.13,6.54,14.72,6.54s11.49-2.18,14.72-6.54c3.22-4.36,4.84-10.46,4.84-18.31s-1.61-13.95-4.84-18.31c-3.22-4.36-8.13-6.54-14.72-6.54s-11.49,2.18-14.72,6.54c-3.22,4.36-4.84,10.46-4.84,18.31Z"/>
        <path class="cls-8" d="m1009.29,498.74c-1.4,0-2.1-.77-2.1-2.31v-55.67c0-1.54.7-2.31,2.1-2.31h3.87c1.4,0,2.1.77,2.1,2.31v51.09h27.88c1.54,0,2.31.63,2.31,1.89v3.11c0,1.26-.77,1.89-2.31,1.89h-33.85Z"/>
      </g>
    </g>
  </g>
</svg>